# xmcd
#
# Track frame offsets: 
#        150
#        16445
#        35452
#        48705
#        79795
#        111950
#        128682
#        148257
#        164037
#        184797
#        208332
#        229527
#
# Disc length: 3352 seconds
#
# Revision: 2
# Processed by: cddbd v1.5.2PL0 Copyright (c) Steve Scherf et al.
# Submitted via: ExactAudioCopyFreeDBPlugin 1.0
#
DISCID=ae0d160c
DTITLE=Michael Bloomfield - The Best of Michael Bloomfield
DYEAR=1997
DGENRE=Blues
TTITLE0=Michigan Water Blues
TTITLE1=Frankie and Johnny
TTITLE2=Mr. Johnson and Mr. Dunn
TTITLE3=Your Friends
TTITLE4=Hitch-Hike on the Possum Trot Line
TTITLE5=Between a Hard Place and the Ground
TTITLE6=Pleading Blues
TTITLE7=Papa-Mama-Rompah-Stompah
TTITLE8=Effinonna Rag
TTITLE9=Orphan's Blues
TTITLE10=The Gospel Truth
TTITLE11=See That My Grave Is Kept Clean
EXTD=
EXTT0=
EXTT1=
EXTT2=
EXTT3=
EXTT4=
EXTT5=
EXTT6=
EXTT7=
EXTT8=
EXTT9=
EXTT10=
EXTT11=
PLAYORDER=
